<svg viewBox="0 0 1353 1042" version="1.1" xmlns="http://www.w3.org/2000/svg" xmlns:xlink="http://www.w3.org/1999/xlink" xml:space="preserve" font-family="Arial" style="width: 1353px; height: 1042px;"><g id="layer_tree" transform="scale(1 1) translate(-28 87) translate(0 0) scale(1 1)"><rect fill-opacity="0.0" width="10" y="0" x="0" height="10"/><g id="layer_tree_line2leaf_label" stroke="grey" stroke-width="0.30000001192092896" stroke-dasharray="4,4"><line y2="75.5256" y1="75.5256" x2="459.387" x1="410.487" transform=""/><line y2="101.051" y1="101.051" x2="459.387" x1="410.487" transform=""/><line y2="126.577" y1="126.577" x2="459.387" x1="448.487" transform=""/><line y2="152.102" y1="152.102" x2="459.387" x1="387.487" transform=""/><line y2="177.628" y1="177.628" x2="459.387" x1="387.487" transform=""/><line y2="203.154" y1="203.154" x2="459.387" x1="394.487" transform=""/><line y2="228.679" y1="228.679" x2="459.387" x1="394.487" transform=""/><line y2="254.205" y1="254.205" x2="459.387" x1="402.487" transform=""/><line y2="279.73" y1="279.73" x2="459.387" x1="456.487" transform=""/><line y2="305.256" y1="305.256" x2="459.387" x1="402.487" transform=""/><line y2="330.782" y1="330.782" x2="459.387" x1="394.487" transform=""/><line y2="356.307" y1="356.307" x2="459.387" x1="425.487" transform=""/><line y2="381.833" y1="381.833" x2="459.387" x1="410.487" transform=""/><line y2="407.358" y1="407.358" x2="459.387" x1="402.487" transform=""/><line y2="432.884" y1="432.884" x2="459.387" x1="448.487" transform=""/><line y2="458.41" y1="458.41" x2="459.387" x1="425.487" transform=""/><line y2="483.935" y1="483.935" x2="459.387" x1="410.487" transform=""/><line y2="509.461" y1="509.461" x2="459.387" x1="425.487" transform=""/><line y2="534.986" y1="534.986" x2="459.387" x1="402.487" transform=""/><line y2="560.512" y1="560.512" x2="459.387" x1="433.487" transform=""/><line y2="586.038" y1="586.038" x2="459.387" x1="448.487" transform=""/><line y2="611.563" y1="611.563" x2="459.387" x1="448.487" transform=""/><line y2="637.089" y1="637.089" x2="459.387" x1="417.487" transform=""/><line y2="662.614" y1="662.614" x2="459.387" x1="441.487" transform=""/><line y2="688.14" y1="688.14" x2="459.387" x1="441.487" transform=""/><line y2="713.666" y1="713.666" x2="459.387" x1="441.487" transform=""/><line y2="739.191" y1="739.191" x2="459.387" x1="417.487" transform=""/><line y2="764.717" y1="764.717" x2="459.387" x1="441.487" transform=""/><line y2="790.242" y1="790.242" x2="459.387" x1="410.487" transform=""/><line y2="815.768" y1="815.768" x2="459.387" x1="441.487" transform=""/><line y2="841.294" y1="841.294" x2="459.387" x1="441.487" transform=""/><line y2="866.819" y1="866.819" x2="459.387" x1="441.487" transform=""/><line y2="892.345" y1="892.345" x2="459.387" x1="448.487" transform=""/></g><g id="layer_tree_charts"><g id="Named columns: ortholod_dbs: column labels"><text text-anchor="start" x="474.387" y="57.7628" fill="#e41a1c" style="font-size: 12px;" transform="rotate(-60 474.387 57.7628)">AYbRAH</text><text text-anchor="start" x="494.387" y="57.7628" fill="#377eb8" style="font-size: 12px;" transform="rotate(-60 494.387 57.7628)">YGOB</text><text text-anchor="start" x="514.387" y="57.7628" fill="#377eb8" style="font-size: 12px;" transform="rotate(-60 514.387 57.7628)">CGOB</text><text text-anchor="start" x="534.387" y="57.7628" fill="#e41a1c" style="font-size: 12px;" transform="rotate(-60 534.387 57.7628)">PANTHER</text><text text-anchor="start" x="554.387" y="57.7628" fill="#984ea3" style="font-size: 12px;" transform="rotate(-60 554.387 57.7628)">HOGENOM</text><text text-anchor="start" x="574.387" y="57.7628" fill="#984ea3" style="font-size: 12px;" transform="rotate(-60 574.387 57.7628)">KO</text><text text-anchor="start" x="594.387" y="57.7628" fill="#984ea3" style="font-size: 12px;" transform="rotate(-60 594.387 57.7628)">OMA</text><text text-anchor="start" x="614.387" y="57.7628" fill="#984ea3" style="font-size: 12px;" transform="rotate(-60 614.387 57.7628)">eggNOG</text></g><g id="Named columns: ortholod_dbs: grid"><line stroke="darkgrey" y2="905.108" y1="62.7628" x2="471.387" x1="471.387"/><line stroke="darkgrey" y2="905.108" y1="62.7628" x2="491.387" x1="491.387"/><line stroke="darkgrey" y2="905.108" y1="62.7628" x2="511.387" x1="511.387"/><line stroke="darkgrey" y2="905.108" y1="62.7628" x2="531.387" x1="531.387"/><line stroke="darkgrey" y2="905.108" y1="62.7628" x2="551.387" x1="551.387"/><line stroke="darkgrey" y2="905.108" y1="62.7628" x2="571.387" x1="571.387"/><line stroke="darkgrey" y2="905.108" y1="62.7628" x2="591.387" x1="591.387"/><line stroke="darkgrey" y2="905.108" y1="62.7628" x2="611.387" x1="611.387"/></g><g fill-opacity="1" id="Named columns: ortholod_dbs"><rect fill="#e41a1c" width="10" y="67.7628" x="466.387" ry="4" rx="4" height="832.345"/><rect fill="#377eb8" width="10" y="782.48" x="486.387" ry="4" rx="4" height="117.628"/><rect fill="#377eb8" width="10" y="603.8" x="506.387" ry="4" rx="4" height="92.1024"/><g><rect fill="#e41a1c" width="10" y="121.577" x="526.387" ry="4" rx="4" height="10"/></g><g><rect fill="#e41a1c" width="10" y="172.628" x="526.387" ry="4" rx="4" height="10"/></g><g><rect fill="#e41a1c" width="10" y="249.205" x="526.387" ry="4" rx="4" height="10"/></g><g><rect fill="#e41a1c" width="10" y="861.819" x="526.387" ry="4" rx="4" height="10"/></g><rect fill="#984ea3" width="10" y="118.814" x="546.387" ry="4" rx="4" height="66.5768"/><g><rect fill="#984ea3" width="10" y="249.205" x="546.387" ry="4" rx="4" height="10"/></g><g><rect fill="#984ea3" width="10" y="376.833" x="546.387" ry="4" rx="4" height="10"/></g><rect fill="#984ea3" width="10" y="629.326" x="546.387" ry="4" rx="4" height="41.0512"/><rect fill="#984ea3" width="10" y="782.48" x="546.387" ry="4" rx="4" height="92.1024"/><rect fill="#984ea3" width="10" y="118.814" x="566.387" ry="4" rx="4" height="92.1024"/><g><rect fill="#984ea3" width="10" y="249.205" x="566.387" ry="4" rx="4" height="10"/></g><g><rect fill="#984ea3" width="10" y="376.833" x="566.387" ry="4" rx="4" height="10"/></g><rect fill="#984ea3" width="10" y="603.8" x="566.387" ry="4" rx="4" height="92.1024"/><rect fill="#984ea3" width="10" y="782.48" x="566.387" ry="4" rx="4" height="117.628"/><g><rect fill="#984ea3" width="10" y="121.577" x="586.387" ry="4" rx="4" height="10"/></g><g><rect fill="#984ea3" width="10" y="172.628" x="586.387" ry="4" rx="4" height="10"/></g><g><rect fill="#984ea3" width="10" y="249.205" x="586.387" ry="4" rx="4" height="10"/></g><g><rect fill="#984ea3" width="10" y="376.833" x="586.387" ry="4" rx="4" height="10"/></g><rect fill="#984ea3" width="10" y="603.8" x="586.387" ry="4" rx="4" height="92.1024"/><g><rect fill="#984ea3" width="10" y="785.242" x="586.387" ry="4" rx="4" height="10"/></g><g><rect fill="#984ea3" width="10" y="861.819" x="586.387" ry="4" rx="4" height="10"/></g><rect fill="#984ea3" width="10" y="118.814" x="606.387" ry="4" rx="4" height="41.0512"/><g><rect fill="#984ea3" width="10" y="249.205" x="606.387" ry="4" rx="4" height="10"/></g><g><rect fill="#984ea3" width="10" y="376.833" x="606.387" ry="4" rx="4" height="10"/></g><g><rect fill="#984ea3" width="10" y="606.563" x="606.387" ry="4" rx="4" height="10"/></g><g><rect fill="#984ea3" width="10" y="657.614" x="606.387" ry="4" rx="4" height="10"/></g><rect fill="#984ea3" width="10" y="782.48" x="606.387" ry="4" rx="4" height="117.628"/></g></g><g id="layer_tree_timeline"/><g fill-opacity="1" id="layer_tree_skeleton" stroke-width="1" stroke-linecap="round"><g pointer-events="all"><line stroke="black" y2="120.867" y1="120.867" x2="40" x1="50"/><circle stroke="red" fill="red" style="visibility: hidden; display: none;" r="2" cy="120.867" cx="50"/><line stroke="none" y2="120.867" y1="120.867" x2="40" x1="50" stroke-width="5px"/></g><g pointer-events="all"><path d="M 50 120.86688232421875 L 50 120.86688232421875 L 59.26581954956055 120.86688232421875" stroke="black" fill="none"/><circle stroke="red" fill="red" style="visibility: hidden; display: none;" r="2" cy="120.867" cx="59.2658"/><path d="M 50 120.86688232421875 L 50 120.86688232421875 L 59.26581954956055 120.86688232421875" stroke="none" fill="none" stroke-width="5px"/></g><g pointer-events="all"><path d="M 59.26581954956055 120.86688232421875 L 59.26581954956055 75.52560123219155 L 188.9872932434082 75.52560123219155" stroke="black" fill="none"/><circle stroke="red" fill="red" style="visibility: hidden; display: none;" r="2" cy="75.5256" cx="188.987"/><path d="M 59.26581954956055 120.86688232421875 L 59.26581954956055 75.52560123219155 L 188.9872932434082 75.52560123219155" stroke="none" fill="none" stroke-width="5px"/></g><g pointer-events="all"><path d="M 59.26581954956055 120.86688232421875 L 59.26581954956055 166.20816341624595 L 68.5316390991211 166.20816341624595" stroke="black" fill="none"/><circle stroke="red" fill="red" style="visibility: hidden; display: none;" r="2" cy="166.208" cx="68.5316"/><path d="M 59.26581954956055 120.86688232421875 L 59.26581954956055 166.20816341624595 L 68.5316390991211 166.20816341624595" stroke="none" fill="none" stroke-width="5px"/></g><g pointer-events="all"><path d="M 68.5316390991211 166.20816040039062 L 68.5316390991211 113.81399886636063 L 179.72147369384766 113.81399886636063" stroke="black" fill="none"/><circle stroke="red" fill="red" style="visibility: hidden; display: none;" r="2" cy="113.814" cx="179.721"/><path d="M 68.5316390991211 166.20816040039062 L 68.5316390991211 113.81399886636063 L 179.72147369384766 113.81399886636063" stroke="none" fill="none" stroke-width="5px"/></g><g pointer-events="all"><path d="M 179.72146606445312 113.81399536132812 L 179.72146606445312 101.05119514465332 L 188.98728561401367 101.05119514465332" stroke="black" fill="none"/><circle stroke="red" fill="red" style="visibility: hidden; display: none;" r="2" cy="101.051" cx="188.987"/><path d="M 179.72146606445312 113.81399536132812 L 179.72146606445312 101.05119514465332 L 188.98728561401367 101.05119514465332" stroke="none" fill="none" stroke-width="5px"/></g><g pointer-events="all"><path d="M 179.72146606445312 113.81399536132812 L 179.72146606445312 126.57679557800293 L 188.98728561401367 126.57679557800293" stroke="black" fill="none"/><circle stroke="red" fill="red" style="visibility: hidden; display: none;" r="2" cy="126.577" cx="188.987"/><path d="M 179.72146606445312 113.81399536132812 L 179.72146606445312 126.57679557800293 L 188.98728561401367 126.57679557800293" stroke="none" fill="none" stroke-width="5px"/></g><g pointer-events="all"><path d="M 68.5316390991211 166.20816040039062 L 68.5316390991211 218.60232193442062 L 77.79745864868164 218.60232193442062" stroke="black" fill="none"/><circle stroke="red" fill="red" style="visibility: hidden; display: none;" r="2" cy="218.602" cx="77.7975"/><path d="M 68.5316390991211 166.20816040039062 L 68.5316390991211 218.60232193442062 L 77.79745864868164 218.60232193442062" stroke="none" fill="none" stroke-width="5px"/></g><g pointer-events="all"><path d="M 77.79745483398438 218.60232543945312 L 77.79745483398438 171.24660334642977 L 170.45565032958984 171.24660334642977" stroke="black" fill="none"/><circle stroke="red" fill="red" style="visibility: hidden; display: none;" r="2" cy="171.247" cx="170.456"/><path d="M 77.79745483398438 218.60232543945312 L 77.79745483398438 171.24660334642977 L 170.45565032958984 171.24660334642977" stroke="none" fill="none" stroke-width="5px"/></g><g pointer-events="all"><path d="M 170.45565795898438 171.24659729003906 L 170.45565795898438 152.10239696502686 L 188.98729705810547 152.10239696502686" stroke="black" fill="none"/><circle stroke="red" fill="red" style="visibility: hidden; display: none;" r="2" cy="152.102" cx="188.987"/><path d="M 170.45565795898438 171.24659729003906 L 170.45565795898438 152.10239696502686 L 188.98729705810547 152.10239696502686" stroke="none" fill="none" stroke-width="5px"/></g><g pointer-events="all"><path d="M 170.45565795898438 171.24659729003906 L 170.45565795898438 190.39079761505127 L 179.72147750854492 190.39079761505127" stroke="black" fill="none"/><circle stroke="red" fill="red" style="visibility: hidden; display: none;" r="2" cy="190.391" cx="179.721"/><path d="M 170.45565795898438 171.24659729003906 L 170.45565795898438 190.39079761505127 L 179.72147750854492 190.39079761505127" stroke="none" fill="none" stroke-width="5px"/></g><g pointer-events="all"><path d="M 179.7214813232422 190.3907928466797 L 179.7214813232422 177.62799263000488 L 188.98730087280273 177.62799263000488" stroke="black" fill="none"/><circle stroke="red" fill="red" style="visibility: hidden; display: none;" r="2" cy="177.628" cx="188.987"/><path d="M 179.7214813232422 190.3907928466797 L 179.7214813232422 177.62799263000488 L 188.98730087280273 177.62799263000488" stroke="none" fill="none" stroke-width="5px"/></g><g pointer-events="all"><path d="M 179.7214813232422 190.3907928466797 L 179.7214813232422 203.1535930633545 L 188.98730087280273 203.1535930633545" stroke="black" fill="none"/><circle stroke="red" fill="red" style="visibility: hidden; display: none;" r="2" cy="203.154" cx="188.987"/><path d="M 179.7214813232422 190.3907928466797 L 179.7214813232422 203.1535930633545 L 188.98730087280273 203.1535930633545" stroke="none" fill="none" stroke-width="5px"/></g><g pointer-events="all"><path d="M 77.79745483398438 218.60232543945312 L 77.79745483398438 265.9580475324765 L 87.06327438354492 265.9580475324765" stroke="black" fill="none"/><circle stroke="red" fill="red" style="visibility: hidden; display: none;" r="2" cy="265.958" cx="87.0633"/><path d="M 77.79745483398438 218.60232543945312 L 77.79745483398438 265.9580475324765 L 87.06327438354492 265.9580475324765" stroke="none" fill="none" stroke-width="5px"/></g><g pointer-events="all"><path d="M 87.06327819824219 265.9580383300781 L 87.06327819824219 228.67919511906803 L 188.9872932434082 228.67919511906803" stroke="black" fill="none"/><circle stroke="red" fill="red" style="visibility: hidden; display: none;" r="2" cy="228.679" cx="188.987"/><path d="M 87.06327819824219 265.9580383300781 L 87.06327819824219 228.67919511906803 L 188.9872932434082 228.67919511906803" stroke="none" fill="none" stroke-width="5px"/></g><g pointer-events="all"><path d="M 87.06327819824219 265.9580383300781 L 87.06327819824219 303.2368815410882 L 96.32909774780273 303.2368815410882" stroke="black" fill="none"/><circle stroke="red" fill="red" style="visibility: hidden; display: none;" r="2" cy="303.237" cx="96.3291"/><path d="M 87.06327819824219 265.9580383300781 L 87.06327819824219 303.2368815410882 L 96.32909774780273 303.2368815410882" stroke="none" fill="none" stroke-width="5px"/></g><g pointer-events="all"><path d="M 96.3291015625 303.23687744140625 L 96.3291015625 254.20479145273566 L 188.98729705810547 254.20479145273566" stroke="black" fill="none"/><circle stroke="red" fill="red" style="visibility: hidden; display: none;" r="2" cy="254.205" cx="188.987"/><path d="M 96.3291015625 303.23687744140625 L 96.3291015625 254.20479145273566 L 188.98729705810547 254.20479145273566" stroke="none" fill="none" stroke-width="5px"/></g><g pointer-events="all"><path d="M 96.3291015625 303.23687744140625 L 96.3291015625 352.26896343007684 L 105.59492111206055 352.26896343007684" stroke="black" fill="none"/><circle stroke="red" fill="red" style="visibility: hidden; display: none;" r="2" cy="352.269" cx="105.595"/><path d="M 96.3291015625 303.23687744140625 L 96.3291015625 352.26896343007684 L 105.59492111206055 352.26896343007684" stroke="none" fill="none" stroke-width="5px"/></g><g pointer-events="all"><path d="M 105.59492492675781 352.2689514160156 L 105.59492492675781 279.73037987202406 L 188.98730087280273 279.73037987202406" stroke="black" fill="none"/><circle stroke="red" fill="red" style="visibility: hidden; display: none;" r="2" cy="279.73" cx="188.987"/><path d="M 105.59492492675781 352.2689514160156 L 105.59492492675781 279.73037987202406 L 188.98730087280273 279.73037987202406" stroke="none" fill="none" stroke-width="5px"/></g><g pointer-events="all"><path d="M 105.59492492675781 352.2689514160156 L 105.59492492675781 424.8075229600072 L 114.86074447631836 424.8075229600072" stroke="black" fill="none"/><circle stroke="red" fill="red" style="visibility: hidden; display: none;" r="2" cy="424.808" cx="114.861"/><path d="M 105.59492492675781 352.2689514160156 L 105.59492492675781 424.8075229600072 L 114.86074447631836 424.8075229600072" stroke="none" fill="none" stroke-width="5px"/></g><g pointer-events="all"><path d="M 114.86074829101562 424.8075256347656 L 114.86074829101562 305.2559829801321 L 188.9873046875 305.2559829801321" stroke="black" fill="none"/><circle stroke="red" fill="red" style="visibility: hidden; display: none;" r="2" cy="305.256" cx="188.987"/><path d="M 114.86074829101562 424.8075256347656 L 114.86074829101562 305.2559829801321 L 188.9873046875 305.2559829801321" stroke="none" fill="none" stroke-width="5px"/></g><g pointer-events="all"><path d="M 114.86074829101562 424.8075256347656 L 114.86074829101562 544.3590682893991 L 124.12656784057617 544.3590682893991" stroke="black" fill="none"/><circle stroke="red" fill="red" style="visibility: hidden; display: none;" r="2" cy="544.359" cx="124.127"/><path d="M 114.86074829101562 424.8075256347656 L 114.86074829101562 544.3590682893991 L 124.12656784057617 544.3590682893991" stroke="none" fill="none" stroke-width="5px"/></g><g pointer-events="all"><path d="M 124.12657165527344 544.3590698242188 L 124.12657165527344 330.7815849483013 L 188.98730850219727 330.7815849483013" stroke="black" fill="none"/><circle stroke="red" fill="red" style="visibility: hidden; display: none;" r="2" cy="330.782" cx="188.987"/><path d="M 124.12657165527344 544.3590698242188 L 124.12657165527344 330.7815849483013 L 188.98730850219727 330.7815849483013" stroke="none" fill="none" stroke-width="5px"/></g><g pointer-events="all"><path d="M 124.12657165527344 544.3590698242188 L 124.12657165527344 383.826973348856 L 133.39239120483398 383.826973348856" stroke="black" fill="none"/><circle stroke="red" fill="red" style="visibility: hidden; display: none;" r="2" cy="383.827" cx="133.392"/><path d="M 124.12657165527344 544.3590698242188 L 124.12657165527344 383.826973348856 L 133.39239120483398 383.826973348856" stroke="none" fill="none" stroke-width="5px"/></g><g pointer-events="all"><path d="M 133.39239501953125 383.82696533203125 L 133.39239501953125 356.3071773648262 L 188.98731231689453 356.3071773648262" stroke="black" fill="none"/><circle stroke="red" fill="red" style="visibility: hidden; display: none;" r="2" cy="356.307" cx="188.987"/><path d="M 133.39239501953125 383.82696533203125 L 133.39239501953125 356.3071773648262 L 188.98731231689453 356.3071773648262" stroke="none" fill="none" stroke-width="5px"/></g><g pointer-events="all"><path d="M 133.39239501953125 383.82696533203125 L 133.39239501953125 411.3467532992363 L 142.6582145690918 411.3467532992363" stroke="black" fill="none"/><circle stroke="red" fill="red" style="visibility: hidden; display: none;" r="2" cy="411.347" cx="142.658"/><path d="M 133.39239501953125 383.82696533203125 L 133.39239501953125 411.3467532992363 L 142.6582145690918 411.3467532992363" stroke="none" fill="none" stroke-width="5px"/></g><g pointer-events="all"><path d="M 142.65821838378906 411.34674072265625 L 142.65821838378906 381.83276522159576 L 188.9873161315918 381.83276522159576" stroke="black" fill="none"/><circle stroke="red" fill="red" style="visibility: hidden; display: none;" r="2" cy="381.833" cx="188.987"/><path d="M 142.65821838378906 411.34674072265625 L 142.65821838378906 381.83276522159576 L 188.9873161315918 381.83276522159576" stroke="none" fill="none" stroke-width="5px"/></g><g pointer-events="all"><path d="M 142.65821838378906 411.34674072265625 L 142.65821838378906 440.86071622371674 L 151.9240379333496 440.86071622371674" stroke="black" fill="none"/><circle stroke="red" fill="red" style="visibility: hidden; display: none;" r="2" cy="440.861" cx="151.924"/><path d="M 142.65821838378906 411.34674072265625 L 142.65821838378906 440.86071622371674 L 151.9240379333496 440.86071622371674" stroke="none" fill="none" stroke-width="5px"/></g><g pointer-events="all"><path d="M 151.92404174804688 440.8607177734375 L 151.92404174804688 407.35836720466614 L 188.98731994628906 407.35836720466614" stroke="black" fill="none"/><circle stroke="red" fill="red" style="visibility: hidden; display: none;" r="2" cy="407.358" cx="188.987"/><path d="M 151.92404174804688 440.8607177734375 L 151.92404174804688 407.35836720466614 L 188.98731994628906 407.35836720466614" stroke="none" fill="none" stroke-width="5px"/></g><g pointer-events="all"><path d="M 151.92404174804688 440.8607177734375 L 151.92404174804688 474.36306834220886 L 161.18986129760742 474.36306834220886" stroke="black" fill="none"/><circle stroke="red" fill="red" style="visibility: hidden; display: none;" r="2" cy="474.363" cx="161.19"/><path d="M 151.92404174804688 440.8607177734375 L 151.92404174804688 474.36306834220886 L 161.18986129760742 474.36306834220886" stroke="none" fill="none" stroke-width="5px"/></g><g pointer-events="all"><path d="M 161.1898651123047 474.3630676269531 L 161.1898651123047 445.6467671394348 L 179.72150421142578 445.6467671394348" stroke="black" fill="none"/><circle stroke="red" fill="red" style="visibility: hidden; display: none;" r="2" cy="445.647" cx="179.721"/><path d="M 161.1898651123047 474.3630676269531 L 161.1898651123047 445.6467671394348 L 179.72150421142578 445.6467671394348" stroke="none" fill="none" stroke-width="5px"/></g><g pointer-events="all"><path d="M 179.72149658203125 445.6467590332031 L 179.72149658203125 432.8839588165283 L 188.9873161315918 432.8839588165283" stroke="black" fill="none"/><circle stroke="red" fill="red" style="visibility: hidden; display: none;" r="2" cy="432.884" cx="188.987"/><path d="M 179.72149658203125 445.6467590332031 L 179.72149658203125 432.8839588165283 L 188.9873161315918 432.8839588165283" stroke="none" fill="none" stroke-width="5px"/></g><g pointer-events="all"><path d="M 179.72149658203125 445.6467590332031 L 179.72149658203125 458.40955924987793 L 188.9873161315918 458.40955924987793" stroke="black" fill="none"/><circle stroke="red" fill="red" style="visibility: hidden; display: none;" r="2" cy="458.41" cx="188.987"/><path d="M 179.72149658203125 445.6467590332031 L 179.72149658203125 458.40955924987793 L 188.9873161315918 458.40955924987793" stroke="none" fill="none" stroke-width="5px"/></g><g pointer-events="all"><path d="M 161.1898651123047 474.3630676269531 L 161.1898651123047 503.07936811447144 L 170.45568466186523 503.07936811447144" stroke="black" fill="none"/><circle stroke="red" fill="red" style="visibility: hidden; display: none;" r="2" cy="503.079" cx="170.456"/><path d="M 161.1898651123047 474.3630676269531 L 161.1898651123047 503.07936811447144 L 170.45568466186523 503.07936811447144" stroke="none" fill="none" stroke-width="5px"/></g><g pointer-events="all"><path d="M 170.4556884765625 503.0793762207031 L 170.4556884765625 483.9351758956909 L 188.9873275756836 483.9351758956909" stroke="black" fill="none"/><circle stroke="red" fill="red" style="visibility: hidden; display: none;" r="2" cy="483.935" cx="188.987"/><path d="M 170.4556884765625 503.0793762207031 L 170.4556884765625 483.9351758956909 L 188.9873275756836 483.9351758956909" stroke="none" fill="none" stroke-width="5px"/></g><g pointer-events="all"><path d="M 170.4556884765625 503.0793762207031 L 170.4556884765625 522.2235765457153 L 179.72150802612305 522.2235765457153" stroke="black" fill="none"/><circle stroke="red" fill="red" style="visibility: hidden; display: none;" r="2" cy="522.224" cx="179.722"/><path d="M 170.4556884765625 503.0793762207031 L 170.4556884765625 522.2235765457153 L 179.72150802612305 522.2235765457153" stroke="none" fill="none" stroke-width="5px"/></g><g pointer-events="all"><path d="M 179.7215118408203 522.2235717773438 L 179.7215118408203 509.46077156066895 L 188.98733139038086 509.46077156066895" stroke="black" fill="none"/><circle stroke="red" fill="red" style="visibility: hidden; display: none;" r="2" cy="509.461" cx="188.987"/><path d="M 179.7215118408203 522.2235717773438 L 179.7215118408203 509.46077156066895 L 188.98733139038086 509.46077156066895" stroke="none" fill="none" stroke-width="5px"/></g><g pointer-events="all"><path d="M 179.7215118408203 522.2235717773438 L 179.7215118408203 534.9863719940186 L 188.98733139038086 534.9863719940186" stroke="black" fill="none"/><circle stroke="red" fill="red" style="visibility: hidden; display: none;" r="2" cy="534.986" cx="188.987"/><path d="M 179.7215118408203 522.2235717773438 L 179.7215118408203 534.9863719940186 L 188.98733139038086 534.9863719940186" stroke="none" fill="none" stroke-width="5px"/></g><g pointer-events="all"><path d="M 124.12657165527344 544.3590698242188 L 124.12657165527344 585.2399142682552 L 142.65821075439453 585.2399142682552" stroke="black" fill="none"/><circle stroke="red" fill="red" style="visibility: hidden; display: none;" r="2" cy="585.24" cx="142.658"/><path d="M 124.12657165527344 544.3590698242188 L 124.12657165527344 585.2399142682552 L 142.65821075439453 585.2399142682552" stroke="none" fill="none" stroke-width="5px"/></g><g pointer-events="all"><path d="M 142.658203125 585.2399291992188 L 142.658203125 560.5120037794113 L 188.98730087280273 560.5120037794113" stroke="black" fill="none"/><circle stroke="red" fill="red" style="visibility: hidden; display: none;" r="2" cy="560.512" cx="188.987"/><path d="M 142.658203125 585.2399291992188 L 142.658203125 560.5120037794113 L 188.98730087280273 560.5120037794113" stroke="none" fill="none" stroke-width="5px"/></g><g pointer-events="all"><path d="M 142.658203125 585.2399291992188 L 142.658203125 609.9678546190262 L 151.92402267456055 609.9678546190262" stroke="black" fill="none"/><circle stroke="red" fill="red" style="visibility: hidden; display: none;" r="2" cy="609.968" cx="151.924"/><path d="M 142.658203125 585.2399291992188 L 142.658203125 609.9678546190262 L 151.92402267456055 609.9678546190262" stroke="none" fill="none" stroke-width="5px"/></g><g pointer-events="all"><path d="M 151.9240264892578 609.9678344726562 L 151.9240264892578 586.037584066391 L 188.9873046875 586.037584066391" stroke="black" fill="none"/><circle stroke="red" fill="red" style="visibility: hidden; display: none;" r="2" cy="586.038" cx="188.987"/><path d="M 151.9240264892578 609.9678344726562 L 151.9240264892578 586.037584066391 L 188.9873046875 586.037584066391" stroke="none" fill="none" stroke-width="5px"/></g><g pointer-events="all"><path d="M 151.9240264892578 609.9678344726562 L 151.9240264892578 633.8980848789215 L 161.18984603881836 633.8980848789215" stroke="black" fill="none"/><circle stroke="red" fill="red" style="visibility: hidden; display: none;" r="2" cy="633.898" cx="161.19"/><path d="M 151.9240264892578 609.9678344726562 L 151.9240264892578 633.8980848789215 L 161.18984603881836 633.8980848789215" stroke="none" fill="none" stroke-width="5px"/></g><g pointer-events="all"><path d="M 161.18984985351562 633.8980712890625 L 161.18984985351562 611.5631709098816 L 188.98730850219727 611.5631709098816" stroke="black" fill="none"/><circle stroke="red" fill="red" style="visibility: hidden; display: none;" r="2" cy="611.563" cx="188.987"/><path d="M 161.18984985351562 633.8980712890625 L 161.18984985351562 611.5631709098816 L 188.98730850219727 611.5631709098816" stroke="none" fill="none" stroke-width="5px"/></g><g pointer-events="all"><path d="M 161.18984985351562 633.8980712890625 L 161.18984985351562 656.2329716682434 L 170.45566940307617 656.2329716682434" stroke="black" fill="none"/><circle stroke="red" fill="red" style="visibility: hidden; display: none;" r="2" cy="656.233" cx="170.456"/><path d="M 161.18984985351562 633.8980712890625 L 161.18984985351562 656.2329716682434 L 170.45566940307617 656.2329716682434" stroke="none" fill="none" stroke-width="5px"/></g><g pointer-events="all"><path d="M 170.45567321777344 656.2329711914062 L 170.45567321777344 637.088770866394 L 188.98731231689453 637.088770866394" stroke="black" fill="none"/><circle stroke="red" fill="red" style="visibility: hidden; display: none;" r="2" cy="637.089" cx="188.987"/><path d="M 170.45567321777344 656.2329711914062 L 170.45567321777344 637.088770866394 L 188.98731231689453 637.088770866394" stroke="none" fill="none" stroke-width="5px"/></g><g pointer-events="all"><path d="M 170.45567321777344 656.2329711914062 L 170.45567321777344 675.3771715164185 L 179.72149276733398 675.3771715164185" stroke="black" fill="none"/><circle stroke="red" fill="red" style="visibility: hidden; display: none;" r="2" cy="675.377" cx="179.721"/><path d="M 170.45567321777344 656.2329711914062 L 170.45567321777344 675.3771715164185 L 179.72149276733398 675.3771715164185" stroke="none" fill="none" stroke-width="5px"/></g><g pointer-events="all"><path d="M 179.72149658203125 675.377197265625 L 179.72149658203125 662.6143970489502 L 188.9873161315918 662.6143970489502" stroke="black" fill="none"/><circle stroke="red" fill="red" style="visibility: hidden; display: none;" r="2" cy="662.614" cx="188.987"/><path d="M 179.72149658203125 675.377197265625 L 179.72149658203125 662.6143970489502 L 188.9873161315918 662.6143970489502" stroke="none" fill="none" stroke-width="5px"/></g><g pointer-events="all"><path d="M 179.72149658203125 675.377197265625 L 179.72149658203125 688.1399974822998 L 188.9873161315918 688.1399974822998" stroke="black" fill="none"/><circle stroke="red" fill="red" style="visibility: hidden; display: none;" r="2" cy="688.14" cx="188.987"/><path d="M 179.72149658203125 675.377197265625 L 179.72149658203125 688.1399974822998 L 188.9873161315918 688.1399974822998" stroke="none" fill="none" stroke-width="5px"/></g><g pointer-events="all"><path d="M 124.12657165527344 544.3590698242188 L 124.12657165527344 757.9365547001362 L 133.39239120483398 757.9365547001362" stroke="black" fill="none"/><circle stroke="red" fill="red" style="visibility: hidden; display: none;" r="2" cy="757.937" cx="133.392"/><path d="M 124.12657165527344 544.3590698242188 L 124.12657165527344 757.9365547001362 L 133.39239120483398 757.9365547001362" stroke="none" fill="none" stroke-width="5px"/></g><g pointer-events="all"><path d="M 133.39239501953125 757.9365844726562 L 133.39239501953125 726.4284214377403 L 179.72149276733398 726.4284214377403" stroke="black" fill="none"/><circle stroke="red" fill="red" style="visibility: hidden; display: none;" r="2" cy="726.428" cx="179.721"/><path d="M 133.39239501953125 757.9365844726562 L 133.39239501953125 726.4284214377403 L 179.72149276733398 726.4284214377403" stroke="none" fill="none" stroke-width="5px"/></g><g pointer-events="all"><path d="M 179.72149658203125 726.4284057617188 L 179.72149658203125 713.665605545044 L 188.9873161315918 713.665605545044" stroke="black" fill="none"/><circle stroke="red" fill="red" style="visibility: hidden; display: none;" r="2" cy="713.666" cx="188.987"/><path d="M 179.72149658203125 726.4284057617188 L 179.72149658203125 713.665605545044 L 188.9873161315918 713.665605545044" stroke="none" fill="none" stroke-width="5px"/></g><g pointer-events="all"><path d="M 179.72149658203125 726.4284057617188 L 179.72149658203125 739.1912059783936 L 188.9873161315918 739.1912059783936" stroke="black" fill="none"/><circle stroke="red" fill="red" style="visibility: hidden; display: none;" r="2" cy="739.191" cx="188.987"/><path d="M 179.72149658203125 726.4284057617188 L 179.72149658203125 739.1912059783936 L 188.9873161315918 739.1912059783936" stroke="none" fill="none" stroke-width="5px"/></g><g pointer-events="all"><path d="M 133.39239501953125 757.9365844726562 L 133.39239501953125 789.4447475075722 L 142.6582145690918 789.4447475075722" stroke="black" fill="none"/><circle stroke="red" fill="red" style="visibility: hidden; display: none;" r="2" cy="789.445" cx="142.658"/><path d="M 133.39239501953125 757.9365844726562 L 133.39239501953125 789.4447475075722 L 142.6582145690918 789.4447475075722" stroke="none" fill="none" stroke-width="5px"/></g><g pointer-events="all"><path d="M 142.65821838378906 789.4447631835938 L 142.65821838378906 764.7168377637863 L 188.9873161315918 764.7168377637863" stroke="black" fill="none"/><circle stroke="red" fill="red" style="visibility: hidden; display: none;" r="2" cy="764.717" cx="188.987"/><path d="M 142.65821838378906 789.4447631835938 L 142.65821838378906 764.7168377637863 L 188.9873161315918 764.7168377637863" stroke="none" fill="none" stroke-width="5px"/></g><g pointer-events="all"><path d="M 142.65821838378906 789.4447631835938 L 142.65821838378906 814.1726886034012 L 151.9240379333496 814.1726886034012" stroke="black" fill="none"/><circle stroke="red" fill="red" style="visibility: hidden; display: none;" r="2" cy="814.173" cx="151.924"/><path d="M 142.65821838378906 789.4447631835938 L 142.65821838378906 814.1726886034012 L 151.9240379333496 814.1726886034012" stroke="none" fill="none" stroke-width="5px"/></g><g pointer-events="all"><path d="M 151.92404174804688 814.1726684570312 L 151.92404174804688 790.242418050766 L 188.98731994628906 790.242418050766" stroke="black" fill="none"/><circle stroke="red" fill="red" style="visibility: hidden; display: none;" r="2" cy="790.242" cx="188.987"/><path d="M 151.92404174804688 814.1726684570312 L 151.92404174804688 790.242418050766 L 188.98731994628906 790.242418050766" stroke="none" fill="none" stroke-width="5px"/></g><g pointer-events="all"><path d="M 151.92404174804688 814.1726684570312 L 151.92404174804688 838.1029188632965 L 161.18986129760742 838.1029188632965" stroke="black" fill="none"/><circle stroke="red" fill="red" style="visibility: hidden; display: none;" r="2" cy="838.103" cx="161.19"/><path d="M 151.92404174804688 814.1726684570312 L 151.92404174804688 838.1029188632965 L 161.18986129760742 838.1029188632965" stroke="none" fill="none" stroke-width="5px"/></g><g pointer-events="all"><path d="M 161.1898651123047 838.1029052734375 L 161.1898651123047 815.7680048942566 L 188.98732376098633 815.7680048942566" stroke="black" fill="none"/><circle stroke="red" fill="red" style="visibility: hidden; display: none;" r="2" cy="815.768" cx="188.987"/><path d="M 161.1898651123047 838.1029052734375 L 161.1898651123047 815.7680048942566 L 188.98732376098633 815.7680048942566" stroke="none" fill="none" stroke-width="5px"/></g><g pointer-events="all"><path d="M 161.1898651123047 838.1029052734375 L 161.1898651123047 860.4378056526184 L 170.45568466186523 860.4378056526184" stroke="black" fill="none"/><circle stroke="red" fill="red" style="visibility: hidden; display: none;" r="2" cy="860.438" cx="170.456"/><path d="M 161.1898651123047 838.1029052734375 L 161.1898651123047 860.4378056526184 L 170.45568466186523 860.4378056526184" stroke="none" fill="none" stroke-width="5px"/></g><g pointer-events="all"><path d="M 170.4556884765625 860.4378051757812 L 170.4556884765625 841.293604850769 L 188.9873275756836 841.293604850769" stroke="black" fill="none"/><circle stroke="red" fill="red" style="visibility: hidden; display: none;" r="2" cy="841.294" cx="188.987"/><path d="M 170.4556884765625 860.4378051757812 L 170.4556884765625 841.293604850769 L 188.9873275756836 841.293604850769" stroke="none" fill="none" stroke-width="5px"/></g><g pointer-events="all"><path d="M 170.4556884765625 860.4378051757812 L 170.4556884765625 879.5820055007935 L 179.72150802612305 879.5820055007935" stroke="black" fill="none"/><circle stroke="red" fill="red" style="visibility: hidden; display: none;" r="2" cy="879.582" cx="179.722"/><path d="M 170.4556884765625 860.4378051757812 L 170.4556884765625 879.5820055007935 L 179.72150802612305 879.5820055007935" stroke="none" fill="none" stroke-width="5px"/></g><g pointer-events="all"><path d="M 179.7215118408203 879.58203125 L 179.7215118408203 866.8192310333252 L 188.98733139038086 866.8192310333252" stroke="black" fill="none"/><circle stroke="red" fill="red" style="visibility: hidden; display: none;" r="2" cy="866.819" cx="188.987"/><path d="M 179.7215118408203 879.58203125 L 179.7215118408203 866.8192310333252 L 188.98733139038086 866.8192310333252" stroke="none" fill="none" stroke-width="5px"/></g><g pointer-events="all"><path d="M 179.7215118408203 879.58203125 L 179.7215118408203 892.3448314666748 L 188.98733139038086 892.3448314666748" stroke="black" fill="none"/><circle stroke="red" fill="red" style="visibility: hidden; display: none;" r="2" cy="892.345" cx="188.987"/><path d="M 179.7215118408203 879.58203125 L 179.7215118408203 892.3448314666748 L 188.98733139038086 892.3448314666748" stroke="none" fill="none" stroke-width="5px"/></g></g><g id="layer_tree_skeleton_shadow" stroke-width="4" stroke-linecap="round" stroke="none" fill="none"/><g fill-opacity="0.5" id="layer_tree_leaflabel_background"/><g fill-opacity="1" id="layer_tree_leaf_labels" font-family="Arial" font-style="italic" style="font-size: 14px;"><text x="193.987" y="79.0256" fill="black">rgm | Rhodotorula graminis</text><text x="193.987" y="104.551" fill="black">sai | Saitoella complicata</text><text x="193.987" y="130.077" fill="black">spo | Schizosaccharomyces pombe</text><text x="193.987" y="155.602" fill="black">ang | Aspergillus niger</text><text x="193.987" y="181.128" fill="black">ncr | Neurospora crassa</text><text x="193.987" y="206.654" fill="black">tre | Trichoderma reesei</text><text x="193.987" y="232.179" fill="black">lst | Lipomyces starkeyi</text><text x="193.987" y="257.705" fill="black">yli | Yarrowia lipolytica</text><text x="193.987" y="283.23" fill="black">arx | Blastobotrys adeninivorans</text><text x="193.987" y="308.756" fill="black">nfu | Nadsonia fulvescens</text><text x="193.987" y="334.282" fill="black">aru | Ascoidea rubescens</text><text x="193.987" y="359.807" fill="black">pta | Pachysolen tannophilus</text><text x="193.987" y="385.333" fill="black">ppa | Komagataella phaffii</text><text x="193.987" y="410.858" fill="black">kcp | Kuraishia capsulata</text><text x="193.987" y="436.384" fill="black">car | Ogataea arabinofermentans</text><text x="193.987" y="461.91" fill="black">opm | Ogataea parapolymorpha</text><text x="193.987" y="487.435" fill="black">dbx | Dekkera bruxellensis</text><text x="193.987" y="512.961" fill="black">pme | Pichia membranifaciens</text><text x="193.987" y="538.486" fill="black">pku | Pichia kudriavzevii</text><text x="193.987" y="564.012" fill="black">bin | Babjeviella inositovora</text><text x="193.987" y="589.538" fill="black">mbi | Metschnikowia bicuspidata</text><text x="193.987" y="615.063" fill="black">mgu | Meyerozyma guilliermondii</text><text x="193.987" y="640.589" fill="black">dha | Debaryomyces hansenii</text><text x="193.987" y="666.114" fill="black">pic | Scheffersomyces stipitis</text><text x="193.987" y="691.64" fill="black">spa | Spathaspora passalidarum</text><text x="193.987" y="717.166" fill="black">wan | Wickerhamomyces anomalus</text><text x="193.987" y="742.691" fill="black">cut | Cyberlindnera jadinii</text><text x="193.987" y="768.217" fill="black">hva | Hanseniaspora valbyensis</text><text x="193.987" y="793.742" fill="black">kla | Kluyveromyces lactis</text><text x="193.987" y="819.268" fill="black">lth | Lachancea thermotolerans</text><text x="193.987" y="844.794" fill="black">zro | Zygosaccharomyces rouxii</text><text x="193.987" y="870.319" fill="black">sce | Saccharomyces cerevisiae</text><text x="193.987" y="895.845" fill="black">vpo | Vanderwaltozyma polyspora</text></g><g id="layer_tree_bootstrap" font-family="Arial" font-style="normal" style="visibility: hidden; display: none; font-size: 10px;"/><g id="layer_tree_branchlength" font-family="Arial" font-style="normal" style="visibility: hidden; display: none; font-size: 10px;"><text text-anchor="middle" x="124.12655639648438" y="72.52560424804688" transform="">1</text><text text-anchor="middle" x="184.3543701171875" y="98.05119323730469" transform="">1</text><text text-anchor="middle" x="184.3543701171875" y="123.57679748535156" transform="">1</text><text text-anchor="middle" x="124.12655639648438" y="110.81399536132812" transform="">1</text><text text-anchor="middle" x="179.7214813232422" y="149.10240173339844" transform="">1</text><text text-anchor="middle" x="184.35438537597656" y="174.62799072265625" transform="">1</text><text text-anchor="middle" x="184.35438537597656" y="200.15359497070312" transform="">1</text><text text-anchor="middle" x="175.08856201171875" y="187.3907928466797" transform="">1</text><text text-anchor="middle" x="124.12655639648438" y="168.24659729003906" transform="">1</text><text text-anchor="middle" x="138.02528381347656" y="225.67919921875" transform="">1</text><text text-anchor="middle" x="142.658203125" y="251.2047882080078" transform="">1</text><text text-anchor="middle" x="147.29110717773438" y="276.7303771972656" transform="">1</text><text text-anchor="middle" x="151.9240264892578" y="302.2559814453125" transform="">1</text><text text-anchor="middle" x="156.55694580078125" y="327.7815856933594" transform="">1</text><text text-anchor="middle" x="161.18984985351562" y="353.30718994140625" transform="">1</text><text text-anchor="middle" x="165.82276916503906" y="378.832763671875" transform="">1</text><text text-anchor="middle" x="170.4556884765625" y="404.3583679199219" transform="">1</text><text text-anchor="middle" x="184.35440063476562" y="429.88397216796875" transform="">1</text><text text-anchor="middle" x="184.35440063476562" y="455.4095458984375" transform="">1</text><text text-anchor="middle" x="170.4556884765625" y="442.6467590332031" transform="">1</text><text text-anchor="middle" x="179.7215118408203" y="480.9351806640625" transform="">1</text><text text-anchor="middle" x="184.3544158935547" y="506.4607849121094" transform="">1</text><text text-anchor="middle" x="184.3544158935547" y="531.9863891601562" transform="">1</text><text text-anchor="middle" x="175.08859252929688" y="519.2235717773438" transform="">1</text><text text-anchor="middle" x="165.82276916503906" y="500.0793762207031" transform="">1</text><text text-anchor="middle" x="156.55694580078125" y="471.3630676269531" transform="">1</text><text text-anchor="middle" x="147.29112243652344" y="437.8607177734375" transform="">1</text><text text-anchor="middle" x="138.02529907226562" y="408.34674072265625" transform="">1</text><text text-anchor="middle" x="128.7594757080078" y="380.82696533203125" transform="">1</text><text text-anchor="middle" x="165.82275390625" y="557.5120239257812" transform="">1</text><text text-anchor="middle" x="170.45565795898438" y="583.03759765625" transform="">1</text><text text-anchor="middle" x="175.0885772705078" y="608.5631713867188" transform="">1</text><text text-anchor="middle" x="179.72149658203125" y="634.0887451171875" transform="">1</text><text text-anchor="middle" x="184.35440063476562" y="659.6143798828125" transform="">1</text><text text-anchor="middle" x="184.35440063476562" y="685.1400146484375" transform="">1</text><text text-anchor="middle" x="175.0885772705078" y="672.377197265625" transform="">1</text><text text-anchor="middle" x="165.82275390625" y="653.2329711914062" transform="">1</text><text text-anchor="middle" x="156.5569305419922" y="630.8980712890625" transform="">1</text><text text-anchor="middle" x="147.29110717773438" y="606.9678344726562" transform="">1</text><text text-anchor="middle" x="133.39239501953125" y="582.2399291992188" transform="">1</text><text text-anchor="middle" x="184.35440063476562" y="710.6655883789062" transform="">1</text><text text-anchor="middle" x="184.35440063476562" y="736.1912231445312" transform="">1</text><text text-anchor="middle" x="156.55694580078125" y="723.4284057617188" transform="">1</text><text text-anchor="middle" x="165.82276916503906" y="761.7168579101562" transform="">1</text><text text-anchor="middle" x="170.4556884765625" y="787.242431640625" transform="">1</text><text text-anchor="middle" x="175.08859252929688" y="812.7680053710938" transform="">1</text><text text-anchor="middle" x="179.7215118408203" y="838.2935791015625" transform="">1</text><text text-anchor="middle" x="184.3544158935547" y="863.8192138671875" transform="">1</text><text text-anchor="middle" x="184.3544158935547" y="889.3448486328125" transform="">1</text><text text-anchor="middle" x="175.08859252929688" y="876.58203125" transform="">1</text><text text-anchor="middle" x="165.82276916503906" y="857.4378051757812" transform="">1</text><text text-anchor="middle" x="156.55694580078125" y="835.1029052734375" transform="">1</text><text text-anchor="middle" x="147.29112243652344" y="811.1726684570312" transform="">1</text><text text-anchor="middle" x="138.02529907226562" y="786.4447631835938" transform="">1</text><text text-anchor="middle" x="128.7594757080078" y="754.9365844726562" transform="">1</text><text text-anchor="middle" x="119.49365997314453" y="541.3590698242188" transform="">1</text><text text-anchor="middle" x="110.22783660888672" y="421.8075256347656" transform="">1</text><text text-anchor="middle" x="100.9620132446289" y="349.2689514160156" transform="">1</text><text text-anchor="middle" x="91.6961898803711" y="300.23687744140625" transform="">1</text><text text-anchor="middle" x="82.43036651611328" y="262.9580383300781" transform="">1</text><text text-anchor="middle" x="73.16455078125" y="215.60232543945312" transform="">1</text><text text-anchor="middle" x="63.89872741699219" y="163.20816040039062" transform="">1</text><text text-anchor="middle" x="54.632911682128906" y="117.86688232421875" transform="">1</text><text text-anchor="middle" x="50" y="117.86688232421875" transform="">0</text></g><g id="layer_tree_leaflabel_decoration"/></g><g id="layer_branch_length_scale" style="stroke: black; width: 1px;"/><g id="layer_legend" font-family="Arial"/><defs><filter id="simpleDropshadow" filterUnits="userSpaceOnUse"><feOffset dx="1" dy="1" in="SourceAlpha" result="offOut"/><feGaussianBlur stdDeviation="2" in="offOut" result="blurOut"/><feBlend in2="blurOut" in="SourceGraphic"/></filter><filter id="dropshadow" filterUnits="userSpaceOnUse"><feOffset dx="1" dy="1" result="offsetblur"/><feGaussianBlur stdDeviation="1" in="SourceAlpha"/><feMerge><feMergeNode/><feMergeNode in="SourceGraphic"/></feMerge></filter><linearGradient/></defs></svg>